<svg xmlns="http://www.w3.org/2000/svg" viewBox="0 0 5.2 5.2" width="52" height="52" xmlns:v="https://vecta.io/nano"><path d="M2.493.407A2.21 2.21 0 0 0 .288 2.612a2.21 2.21 0 0 0 2.205 2.205 2.21 2.21 0 0 0 2.205-2.205A2.21 2.21 0 0 0 2.493.407zm0 .368c1.017 0 1.837.82 1.837 1.837a1.83 1.83 0 0 1-1.487 1.803l-.023-.034a1.75 1.75 0 0 1-.144-.23c.174.07.291.103.35.103.044 0 .063-.065.063-.201 0-.253-.023-.379-.069-.379-.068 0-.195.075-.39.224-.061-.01-.062-.016-.086-.052a1.43 1.43 0 0 1-.103-.5.57.57 0 0 1 .011-.121c.25.122.451.184.603.184.084 0 .209-.026.379-.075s.258-.103.258-.161c0-.035-.023-.052-.069-.052-.07 0-.177.01-.31.029l-.304.029c-.073 0-.153-.019-.241-.057s-.132-.09-.132-.155c0-.014.001-.022.006-.029s.009-.01.017-.011.015-.001.023 0 .021-.001.034 0 .024.006.034.006c.024 0 .062-.001.109.006l.103.011c.084 0 .256-.05.517-.149s.39-.175.39-.23c0-.032-.024-.055-.075-.069a.55.55 0 0 0-.144-.017.73.73 0 0 0-.172.029l-.247.075-.178.052a.69.69 0 0 0 .017-.126c0-.128-.036-.278-.103-.448s-.146-.298-.235-.379c-.073-.065-.171-.108-.293-.132-.076-.098-.195-.189-.356-.27s-.306-.121-.431-.121c-.024 0-.065.008-.115.017l-.092.017-.092.126.023.006c.019 0 .052-.006.092-.011s.067-.006.086-.006c.093 0 .196.019.316.057a.93.93 0 0 1-.201.075.22.22 0 0 1-.052.011l-.075.011c-.02.004-.039.017-.057.029s-.023.027-.023.046l.339-.029c.103 0 .187.01.247.029-.209.024-.37.099-.482.218s-.172.285-.172.494a1.16 1.16 0 0 0 .017.201l.299 1.459.086.396a1.83 1.83 0 0 1-1.143-1.7c0-1.017.82-1.838 1.837-1.838zm.258 1.143c.068 0 .116.032.144.092-.055-.027-.103-.04-.138-.04-.079 0-.128.017-.149.052.011-.068.06-.103.144-.103zm-.93.046c.052 0 .088.022.115.057-.032-.014-.059-.023-.08-.023-.046 0-.092.019-.144.052s-.078.072-.075.115c-.008-.017-.011-.035-.011-.052 0-.046.021-.083.063-.109a.25.25 0 0 1 .132-.04zm.999.253c.032 0 .057.017.08.04s.034.048.034.08-.011.056-.034.08-.047.04-.08.04-.056-.016-.08-.04-.04-.05-.04-.08.016-.057.04-.08.05-.04.08-.04zm.052.052c-.019 0-.029.01-.029.029s.009.034.029.034.034-.013.034-.034-.013-.029-.034-.029zm-.976.011a.14.14 0 0 1 .098.046c.029.029.046.057.046.092a.14.14 0 0 1-.046.098c-.029.029-.062.04-.098.04s-.063-.011-.092-.04a.14.14 0 0 1-.046-.098c0-.035.017-.063.046-.092s.057-.046.092-.046zm.063.057c-.024 0-.034.01-.034.034a.03.03 0 0 0 .034.034.03.03 0 0 0 .034-.034c0-.024-.01-.034-.034-.034z" fill="#d46b4a"/><g stroke-linejoin="round"><path d="M1.973 4.21a3.06 3.06 0 0 1-.021-.289c-.006-.182-.005-.203.012-.203.031 0 .192.062.335.13.11.052.133.067.133.088 0 .014.003.049.007.078l.007.052-.122.067-.331.162c-.003 0-.012-.038-.02-.085z" fill="#ff9370" stroke="#ff9370" stroke-width=".06" paint-order="normal"/><path d="M2.979 4.248c-.052-.01-.115-.028-.201-.059l-.066-.026c-.036-.03-.091-.037-.112-.065-.041-.055-.036-.101-.02-.15.01-.031.039-.041.072-.063l.044-.033c.179-.133.314-.198.343-.166s.049.16.046.365c-.001.1-.002.115-.009.14-.016.06-.032.07-.098.057z" fill="#ff784f" stroke="#ff784f" paint-order="stroke markers fill" stroke-width=".022"/></g><path d="M2.415 4.101c-.003-.008-.004-.055-.003-.104l.003-.09.04-.013c.022-.007.065-.016.097-.019.067-.007.067-.008.077.125.006.081.006.083-.019.092a.61.61 0 0 1-.107.017c-.067.006-.083.004-.087-.008z" fill="#ffc1ad" paint-order="normal"/></svg>